<?xml version="1.0" encoding="utf-8"?>
<!-- Generator: Adobe Illustrator 27.2.0, SVG Export Plug-In . SVG Version: 6.00 Build 0)  -->
<svg version="1.1" id="Layer_1" xmlns="http://www.w3.org/2000/svg" xmlns:xlink="http://www.w3.org/1999/xlink" x="0px" y="0px"
	 viewBox="0 0 24 24" style="enable-background:new 0 0 24 24;" xml:space="preserve">
<style type="text/css">
	.st0{fill:none;stroke:#000000;stroke-width:2;stroke-miterlimit:10;}
	.st1{stroke:#000000;stroke-miterlimit:10;}
</style>
<path class="st0" d="M11.8,4.3c-2.5,0-5,1.3-6.1,3.6C5.3,8.8,5,9.9,5,11v6l-2,2v1h18l0-0.9l0-0.1l-2-2v-6c0-1.1-0.3-2.2-0.7-3.1
	c-1.1-2.3-3.6-3.6-6.1-3.6H11.8z"/>
<path class="st1" d="M13.6,4c-0.3-0.7-1-1.2-1.8-1.2S10.2,3.3,9.9,4H13.6z"/>
<path d="M14,21c0,1.1-0.9,2-2,2s-2-0.9-2-2"/>
<path d="M19.8,3.2l-1.4,1.4C20,6.3,21,8.6,21,11h2C23,8.1,21.8,5.2,19.8,3.2"/>
<path d="M1,11h2c0-2.4,1-4.7,2.7-6.4L4.2,3.2C2.2,5.2,1,8.1,1,11z"/>
</svg>
